<svg id="svg" version="1.1" xmlns="http://www.w3.org/2000/svg" xmlns:xlink="http://www.w3.org/1999/xlink" width="400" height="400" viewBox="0, 0, 400,400"><g id="svgg"><path id="path0" d="M199.897 56.900 C 199.362 57.835,197.525 61.030,195.813 64.000 C 194.102 66.970,191.406 71.650,189.822 74.400 C 188.239 77.150,184.187 84.170,180.819 90.000 C 177.450 95.830,173.399 102.850,171.817 105.600 C 170.234 108.350,167.532 113.030,165.812 116.000 C 162.171 122.288,158.029 129.452,149.392 144.400 C 147.676 147.370,144.979 152.050,143.399 154.800 C 141.818 157.550,139.119 162.230,137.400 165.200 C 134.072 170.949,130.298 177.483,125.330 186.097 C 123.647 189.014,120.962 193.650,119.363 196.400 C 117.764 199.150,115.795 202.570,114.988 204.000 C 114.181 205.430,112.569 208.220,111.405 210.200 C 109.620 213.235,102.804 225.040,83.687 258.200 C 77.863 268.303,76.856 270.167,77.051 270.482 C 77.311 270.903,325.094 270.895,325.354 270.474 C 325.465 270.294,323.738 267.009,321.515 263.174 C 319.292 259.338,316.135 253.860,314.499 251.000 C 312.863 248.140,310.146 243.417,308.462 240.504 C 306.778 237.592,304.125 233.002,302.568 230.304 C 301.010 227.607,298.330 222.970,296.612 220.000 C 294.894 217.030,292.189 212.350,290.601 209.600 C 289.013 206.850,286.725 202.890,285.517 200.800 C 283.462 197.245,278.341 188.359,273.297 179.600 C 272.094 177.510,270.790 175.260,270.400 174.600 C 270.010 173.940,268.709 171.690,267.509 169.600 C 265.203 165.583,261.209 158.669,256.130 149.900 C 254.442 146.985,251.766 142.350,250.183 139.600 C 248.601 136.850,244.550 129.830,241.181 124.000 C 237.813 118.170,233.736 111.106,232.123 108.303 C 230.509 105.500,227.866 100.910,226.250 98.103 C 224.634 95.296,220.652 88.410,217.400 82.800 C 209.198 68.650,205.811 62.774,203.510 58.700 C 201.228 54.661,201.188 54.641,199.897 56.900 " stroke="none" fill="#040404" fill-rule="evenodd"></path><path id="path1" d="M0.000 200.000 L 0.000 400.000 200.000 400.000 L 400.000 400.000 400.000 200.000 L 400.000 0.000 200.000 0.000 L 0.000 0.000 0.000 200.000 M202.181 55.703 C 203.138 57.291,204.807 60.178,222.480 90.800 C 225.978 96.861,230.671 104.979,233.927 110.600 C 235.584 113.460,238.281 118.140,239.922 121.000 C 241.562 123.860,243.220 126.740,243.607 127.400 C 244.618 129.128,248.229 135.383,251.687 141.400 C 253.331 144.260,256.085 149.030,257.807 152.000 C 259.530 154.970,262.233 159.650,263.815 162.400 C 265.397 165.150,268.000 169.650,269.600 172.400 C 275.059 181.783,283.489 196.392,287.604 203.600 C 289.174 206.350,291.820 210.940,293.485 213.800 C 296.665 219.265,297.705 221.063,310.480 243.200 C 313.549 248.518,318.779 257.566,319.612 259.000 C 325.109 268.458,325.994 270.081,325.998 270.700 C 326.000 271.099,300.775 271.200,201.200 271.200 C 86.428 271.200,76.400 271.148,76.400 270.552 C 76.400 270.196,77.367 268.261,78.548 266.252 C 81.314 261.552,84.773 255.599,87.530 250.800 C 93.399 240.584,95.751 236.498,96.395 235.400 C 96.782 234.740,98.132 232.400,99.395 230.200 C 100.658 228.000,102.005 225.660,102.388 225.000 C 103.221 223.566,108.451 214.518,111.520 209.200 C 122.420 190.312,125.134 185.613,128.611 179.600 C 130.329 176.630,133.009 171.986,134.567 169.280 C 136.125 166.574,138.768 161.984,140.440 159.080 C 144.891 151.349,148.756 144.663,155.400 133.200 C 158.652 127.590,162.659 120.660,164.305 117.800 C 169.131 109.418,177.343 95.194,178.393 93.400 C 178.780 92.740,180.438 89.860,182.078 87.000 C 183.719 84.140,186.468 79.370,188.188 76.400 C 195.576 63.641,197.429 60.428,199.090 57.500 C 201.093 53.966,201.125 53.948,202.181 55.703 " stroke="none" fill="#fbfbfb" fill-rule="evenodd"></path><path id="path2" d="" stroke="none" fill="#7c7c7c" fill-rule="evenodd"></path><path id="path3" d="M138.700 271.100 C 173.075 271.156,229.325 271.156,263.700 271.100 C 298.075 271.044,269.950 270.997,201.200 270.997 C 132.450 270.997,104.325 271.044,138.700 271.100 " stroke="none" fill="#9f9f9f" fill-rule="evenodd"></path><path id="path4" d="" stroke="none" fill="#747474" fill-rule="evenodd"></path></g></svg>